PathFileType	4	(X/Y/Z)	9_2_38_p1_0-221_filt_butterworth.trc
DataRate	CameraRate	NumFrames	NumMarkers	Units	OrigDataRate	OrigDataStartFrame	OrigNumFrames
57.0	57.0	5	27	m	57.0	138	221
Frame#	Time	RHip			RKnee			RAnkle			RBigToe			RSmallToe			RHeel			LHip			LKnee			LAnkle			LBigToe			LSmallToe			LHeel			Neck			Head			Nose			RShoulder			RElbow			RWrist			RThumb			RIndex			RPinky			LShoulder			LElbow			LWrist			LThumb			LIndex			LPinky			
		X1	Y1	Z1	X2	Y2	Z2	X3	Y3	Z3	X4	Y4	Z4	X5	Y5	Z5	X6	Y6	Z6	X7	Y7	Z7	X8	Y8	Z8	X9	Y9	Z9	X10	Y10	Z10	X11	Y11	Z11	X12	Y12	Z12	X13	Y13	Z13	X14	Y14	Z14	X15	Y15	Z15	X16	Y16	Z16	X17	Y17	Z17	X18	Y18	Z18	X19	Y19	Z19	X20	Y20	Z20	X21	Y21	Z21	X22	Y22	Z22	X23	Y23	Z23	X24	Y24	Z24	X25	Y25	Z25	X26	Y26	Z26	X27	Y27	Z27	
138	2.421052631578948	0.32748500208705833	0.45582726866816653	1.1403727203288514	0.2928848259015027	0.4826581841768163	1.5120528276933758	0.2920559053346962	0.6157181419387906	1.9286732364400552	0.27161050009250615	0.35208153287437943	1.8601370101943355	0.33045065855631706	0.3836199276280763	1.8688305509183978	0.27489650269383786	0.7058499643228001	2.0003982496492663	0.10802426078240696	0.436910169262229	1.1436416439461083	0.11799296534123085	0.5254030804632305	1.5172419736996707	0.09372033965999765	0.6135102160632999	1.9094894909180846	0.11527552659746382	0.3691972788476047	1.8569859263756912	0.056758775628917776	0.4393753500806912	1.8715474965327517	0.08600507952462481	0.7339753443966209	2.006395129449231	0.2423715602424324	0.37302031395641544	0.6112024014085847	0.2435249384969715	0.3165077365938294	0.3686306417888164	0.2390534652228825	0.24590876364154476	0.4976999733479219	0.40736616015916427	0.4073671945138805	0.7148490742102015	0.434061544731783	0.48227837163464665	0.9318726713053317	0.30181810731578373	0.5949676086070319	1.1081027876978515	0.3979199554430686	0.5885841618879357	1.2434927357776786	0.3961076672989845	0.6260828343629448	1.251662257821447	0.08914081608754351	1.0065474752203925	1.2642239849936727	0.07037491237860455	0.41124889006492366	0.6942845038222595	0.0031099297009923354	0.5250078554439894	0.9049635582185842	0.08280240284008875	0.5093505141227419	1.05823211761704	0.13062776500888398	0.5676515979043432	1.0585943542137197	0.15846679349606946	0.5429962769094897	1.068631887259919	0.1681567955488479	0.5591411548862714	1.0858024400877104
139	2.43859649122807	0.32748608592290057	0.45579168128980163	1.1403837859621448	0.2940063456332713	0.4793731806951698	1.5146956351137622	0.2920764488953951	0.615644679258184	1.9286639326359218	0.27152157177914	0.3521412972543653	1.8602221960449883	0.3290932355904551	0.3876103882736704	1.8710448039043919	0.2750084224663314	0.7058778957622184	2.0003630558284784	0.10812119773321993	0.4364911384208354	1.143125711364787	0.11807629237844364	0.5251688048224696	1.5179265379299753	0.09371391383653085	0.6135030870987958	1.9095172268661942	0.11530256407511258	0.3691428386914144	1.8569605455826987	0.05678442382016447	0.4393061664739273	1.8715889058437025	0.085979290581866	0.733964647558583	2.0063980331843307	0.24238356298842273	0.3729548028701858	0.6111832412132155	0.24352707049039735	0.31652862599625975	0.36831533954660994	0.2390989255003138	0.245855832453447	0.4976812021198011	0.407235400119952	0.40358838604412356	0.7132984557106332	0.4336686443729427	0.48198462094213146	0.9284678449071928	0.3011606510393524	0.6040052446002704	1.1103369381056258	0.3979199554430686	0.5885841618879357	1.2434927357776786	0.3961076672989845	0.6260828343629448	1.251662257821447	0.08914081608754351	1.0065474752203925	1.2642239849936727	0.0703763827244467	0.4111750892018306	0.6942355805254733	0.003175920601891645	0.524882442055509	0.9041755440984359	0.0817924980186909	0.5159631924012651	1.059973201252743	0.13110772800307752	0.5648074932687878	1.055021718884431	0.15730352341452	0.5503297672308807	1.0698312763202713	0.1681564860428264	0.5591403617267168	1.085802211745615
140	2.456140350877193	0.3275050488924884	0.4557633973090653	1.1403698768904302	0.2945127568223653	0.4795208595608498	1.5163679208412377	0.2919904546560893	0.6153236007340055	1.9280756772384597	0.27141744896834585	0.35219022348899504	1.8603544104041274	0.32712587240643276	0.3929406541005247	1.8735968802606275	0.27510337453189015	0.7057412913059861	2.000109422689728	0.1086995934450616	0.4362604269782753	1.1418627665361298	0.11812959423300246	0.5250263359417624	1.5183357035437346	0.09370663643322619	0.6134949370997351	1.9095610056651833	0.1152925065871025	0.36913449094266365	1.8569902014344373	0.05680199999712035	0.4392359092920956	1.8716531170562116	0.08601613583896006	0.7340081285916115	2.00646624276914	0.24240938172367804	0.3728720137741149	0.6111483139127272	0.24354981827860317	0.3164913447361406	0.3674908351934623	0.238716521014409	0.24699742026635885	0.49776308662984275	0.40727015544366707	0.39774811294720935	0.7120717176164992	0.43354625831405913	0.4823528299629909	0.9270330022579425	0.30015783198570195	0.6107922950870025	1.1119523552241968	0.3979199554430686	0.5885841618879357	1.2434927357776786	0.3961076672989845	0.6260828343629448	1.251662257821447	0.08914081608754348	1.0065474752203925	1.2642239849936727	0.07039014305410307	0.4110391992025667	0.6941762983985221	0.003247524964886189	0.5248204580975547	0.9034930163428769	0.08027064050038116	0.5244698934603725	1.062136722444652	0.13106673820522674	0.5650503854823297	1.0553268290735784	0.15500077578823834	0.5644905162053209	1.0724246153108095	0.16815645065038481	0.5591403377374174	1.0858022043907596
141	2.473684210526316	0.32754020458611355	0.4557268502277525	1.140318274379009	0.29467053103912777	0.48181191237641174	1.516641944021007	0.2917334962406111	0.6146442924939921	1.9265484051438428	0.27129285768068273	0.35222411299693235	1.860494420402405	0.32563917533053194	0.3964294227197797	1.8745519221738136	0.2751246273940368	0.7055832885996907	1.999931725592593	0.10992630199637668	0.436233910172747	1.1403946161806529	0.1181429147103036	0.5249913622662595	1.5184116894867463	0.09370236250111234	0.6134974981397808	1.90960914940865	0.11526779049880409	0.36912247264559056	1.8570331668756312	0.056784831534500924	0.43920231930874465	1.8717322658830315	0.08609763540334144	0.7341134093700814	2.0066052020977803	0.24243333624663654	0.372828884169937	0.6111183851075963	0.24358725160268657	0.31642160649179246	0.3664333546376691	0.2376171063072591	0.2501678449744358	0.4980213489891138	0.40767215282531344	0.39189909911152115	0.7115022408150302	0.4336579835241892	0.4827778963073211	0.9283882986463199	0.29860622909574325	0.6136634953406416	1.1122873920457241	0.3979199554430686	0.5885841618879357	1.2434927357776786	0.3961076672989845	0.6260828343629448	1.251662257821447	0.08914081608754348	1.0065474752203925	1.2642239849936727	0.07041390222929675	0.4109501468205348	0.6941602128703805	0.0032664589951682354	0.524854113013888	0.9030631788457575	0.0791511291685075	0.5306103443377806	1.0636668791436508	0.13093542467576103	0.565828506759142	1.0563042697518354	0.1526548995586784	0.5802752139010801	1.0752885683926101	0.1681565010956003	0.5591405039866236	1.0858022520043993
142	2.491228070175439	0.32758219663568494	0.45567569540627095	1.1402391043123843	0.29464633907705945	0.4825630726476626	1.5154535019496302	0.29137453562769183	0.6137992790951828	1.9245582159459376	0.2713989553703031	0.3523393244847898	1.8606710609125443	0.3259003209678019	0.3960557655213262	1.8733567780789486	0.2749358861889266	0.7056309450168254	2.000441084843712	0.11141597308141334	0.4362030857344116	1.1391308111202345	0.11814659187798984	0.5249797438646835	1.518363857109295	0.09370136879343016	0.6135319503323114	1.9096423081793268	0.11524786811300596	0.36907012097631875	1.8570587785051365	0.05670399466841771	0.4393525794238685	1.8718498528724832	0.08616742554852455	0.7342025396239309	2.006706519432568	0.2424446545896754	0.37284037885000815	0.611107351763849	0.24361679227652594	0.3163761051426003	0.36567603218958633	0.23612658260591576	0.25445626560226986	0.49838320997069946	0.40834850003281753	0.3876986400368669	0.7111441261109565	0.4344052068946474	0.4822721563264599	0.9299382604505291	0.2975473204260539	0.6148520467317565	1.1121344997356768	0.3979199554430686	0.5885841618879357	1.2434927357776786	0.3961076672989845	0.6260828343629448	1.251662257821447	0.08914081608754354	1.0065474752203925	1.2642239849936727	0.07043563873581213	0.41093151376309994	0.6941738928339896	0.0032248048818846976	0.525075864018362	0.902433522780218	0.07875354943373465	0.5327439852651963	1.0641949438588005	0.13087199030421146	0.5662043982181926	1.056776447564773	0.15204690396560844	0.5918430304229185	1.077167914428267	0.1681565370383694	0.559140601485175	1.08580228003175
